 <svg  version="1.0" xmlns="http://www.w3.org/2000/svg"  width="900.000000pt" height="1107.000000pt" viewBox="0 0 900.000000 1107.000000"  preserveAspectRatio="xMidYMid meet">  <g transform="translate(0.000000,1107.000000) scale(0.100000,-0.100000)" fill="#ed563b" stroke="none"> <path d="M180 11057 c0 -7 -13 -23 -29 -35 -44 -32 -96 -151 -140 -318 -6 -23 -11 -89 -11 -147 0 -200 1 -200 421 -142 147 21 157 17 354 -127 6 -4 43 -35 82 -68 73 -61 89 -85 139 -210 10 -25 27 -56 38 -68 23 -26 102 -82 116 -82 4 0 26 -21 48 -46 46 -52 82 -145 82 -213 1 -62 34 -183 70 -256 34 -69 75 -116 177 -204 76 -66 104 -112 169 -276 29 -74 88 -145 120 -145 11 -1 37 -13 58 -28 45 -31 81 -95 127 -227 17 -49 37 -107 45 -127 8 -21 20 -55 28 -75 23 -61 136 -332 167 -401 16 -34 29 -64 29 -66 0 -3 17 -42 39 -88 21 -46 53 -114 71 -153 18 -38 61 -128 95 -200 104 -218 105 -220 185 -420 159 -398 222 -500 530 -858 74 -87 147 -181 162 -210 27 -51 27 -56 28 -232 0 -241 32 -661 76 -1005 8 -63 14 -130 14 -148 0 -18 7 -77 15 -130 7 -53 21 -153 30 -222 9 -69 23 -163 30 -210 8 -47 22 -128 30 -180 53 -322 109 -535 178 -678 19 -38 69 -122 113 -188 122 -184 117 -171 110 -294 -3 -58 -9 -127 -12 -154 -7 -59 8 -136 43 -214 29 -66 63 -169 63 -194 0 -10 7 -34 16 -55 9 -21 20 -47 25 -58 4 -11 23 -56 42 -100 54 -124 63 -173 49 -256 -16 -92 -15 -170 2 -216 51 -139 61 -300 31 -465 -9 -46 -22 -117 -30 -158 -7 -41 -19 -128 -26 -192 -20 -197 6 -257 134 -309 32 -13 75 -37 95 -54 133 -111 232 -144 452 -152 152 -5 193 3 237 49 26 27 28 36 28 107 0 77 -7 103 -59 209 -40 82 -50 98 -126 202 -94 128 -129 192 -160 290 -22 69 -24 92 -24 285 0 129 7 268 17 360 47 420 56 621 36 805 -5 52 -10 147 -10 210 -1 120 4 144 54 251 63 134 59 158 -63 369 -68 116 -86 171 -70 210 11 26 65 60 96 60 8 0 32 9 53 20 58 29 74 71 68 183 -5 89 -14 133 -57 285 -79 280 -79 459 1 807 90 388 201 584 379 666 19 9 46 21 60 28 31 14 133 44 225 66 39 9 95 22 125 30 30 8 87 21 125 30 226 54 393 116 530 199 115 70 184 133 299 276 186 231 194 240 268 266 83 29 318 14 788 -51 262 -36 356 -45 493 -45 103 0 157 4 180 14 18 7 65 44 106 82 63 60 154 132 231 184 122 83 230 177 261 228 12 17 27 32 35 32 11 0 14 16 14 70 0 54 -3 70 -14 70 -8 0 -18 10 -21 23 -17 60 -224 463 -260 507 -7 8 -14 20 -16 26 -6 17 -57 81 -124 154 -131 144 -152 168 -195 227 -48 65 -122 123 -157 123 -11 0 -46 20 -78 44 -69 54 -108 60 -332 54 -137 -4 -152 -6 -198 -31 -29 -15 -63 -44 -81 -69 -27 -38 -37 -63 -59 -145 -8 -29 18 -84 56 -117 23 -21 29 -35 29 -65 0 -57 15 -88 50 -106 28 -14 33 -14 77 6 27 12 90 50 142 86 119 80 133 84 172 47 65 -62 219 -318 219 -363 0 -59 -105 -47 -370 43 -175 59 -234 87 -320 151 -69 52 -97 62 -189 69 -83 6 -100 16 -132 82 -23 48 -61 84 -90 84 -10 0 -29 10 -43 23 -22 19 -27 38 -42 152 -14 104 -23 142 -48 190 -27 53 -31 69 -30 145 l0 85 61 100 c141 233 180 440 128 683 -9 40 -19 81 -24 90 -5 9 -19 38 -32 63 -44 89 -162 197 -274 249 -195 91 -406 77 -633 -42 -206 -108 -292 -232 -292 -423 0 -38 5 -90 11 -115 17 -69 15 -190 -3 -225 -8 -16 -21 -54 -28 -82 -13 -57 -4 -121 27 -194 8 -20 13 -47 11 -60 -6 -48 -16 -46 -478 114 -200 70 -306 109 -336 125 -10 6 -39 20 -64 32 -67 32 -148 84 -270 176 -49 37 -205 134 -216 134 -2 0 -32 13 -66 29 -35 15 -97 42 -138 59 -41 17 -163 67 -270 113 -168 70 -269 111 -430 174 -19 7 -57 20 -85 29 -279 86 -322 108 -455 236 -107 102 -144 115 -252 86 -104 -28 -180 -62 -200 -91 -4 -5 -8 -34 -8 -62 0 -35 -10 -78 -30 -128 -16 -42 -30 -83 -30 -91 0 -36 163 -153 242 -175 29 -7 80 -9 155 -4 126 7 175 -2 289 -56 64 -30 233 -124 283 -157 44 -29 65 -42 86 -52 11 -6 32 -18 47 -28 15 -9 67 -41 115 -71 123 -76 187 -125 219 -166 29 -39 48 -124 59 -264 11 -137 59 -358 95 -434 23 -48 75 -98 140 -133 66 -36 153 -107 243 -201 51 -53 115 -107 146 -125 65 -36 82 -55 74 -83 -20 -71 -82 -74 -165 -10 -83 66 -102 70 -205 50 -111 -22 -176 -15 -254 28 -124 69 -181 137 -290 346 -73 139 -106 173 -203 201 -95 29 -207 100 -276 178 -28 31 -81 102 -117 157 -109 165 -140 203 -305 371 -166 169 -197 216 -198 289 0 67 -29 98 -136 150 -83 40 -134 79 -134 104 0 34 -34 117 -64 156 -64 84 -516 520 -656 633 -168 135 -221 187 -303 297 -54 73 -118 141 -193 204 -16 14 -107 100 -202 193 -95 92 -178 168 -184 168 -6 0 -19 6 -27 14 -61 54 -394 196 -458 196 -13 0 -32 9 -43 20 -16 16 -33 20 -95 20 -55 0 -75 -3 -75 -13z"/> </g> </svg> 